<svg height="512" viewBox="0 0 60 60" width="512" xmlns="http://www.w3.org/2000/svg"><g id="Page-1" fill="none" fill-rule="evenodd"><g id="026---American-Football" fill-rule="nonzero"><g id="Icons"><path id="Shape" d="m48.22 48.22c-7 7-16.55 10-25 10.64s-15.9-1.08-18.45-3.63-4.28-9.93-3.63-18.41 3.68-18.08 10.64-25 16.55-10 25-10.64 15.9 1.04 18.45 3.59 4.28 9.93 3.63 18.41-3.68 18.07-10.64 25.04z" fill="#91562d"/><path id="Shape" d="m55.23 4.77c-2.34-2.34-8.76-3.99-16.36-3.77 6.25.21 11.33 1.71 13.36 3.74 5.1 5.1 6.92 29.52-7 43.45-7.55 7.57-18.15 10.49-27.1 10.81 9.49.32 21.69-2.35 30.09-10.75 13.93-13.96 12.11-38.38 7.01-43.48z" fill="#6d4122"/><g fill="#f5f5f5"><path id="Shape" d="m29.81 9.12c-1.1086209.57008218-2.1867522 1.1976013-3.23 1.88l-1.53-1.51c-.5055308-.50553082-1.242358-.70296309-1.932926-.51792597-.6905679.18503712-1.2299629.72443208-1.415 1.41499997-.1850371.690568.0123952 1.4273952.517926 1.932926l1 1c-1.21.93-2.51 2-3.84 3.24l-1.38-1.41c-.7870058-.7870057-2.0629942-.7870057-2.85 0-.7870057.7870058-.7870057 2.0629942 0 2.85l1.45 1.44c-1.23 1.33-2.31 2.63-3.24 3.84l-1-1c-.5055308-.5055308-1.242358-.7029631-1.932926-.517926-.69056789.1850371-1.22996285.7244321-1.41499997 1.415-.18503712.690568.01239515 1.4273952.51792597 1.932926l1.47 1.47c-.6892105 1.0428067-1.32341001 2.1209459-1.9 3.23-.31975272.6430781-.27213834 1.4078927.12490724 2.0063457.39704559.598453 1.08320176.9396251 1.80000006.8950001.7167983-.0446251 1.35534-.4682677 1.6750927-1.1113458 0 0 .42-.83 1.22-2.12l1.23 1.23c.7814829.7870058 2.0529942.7914829 2.84.01s.7914829-2.0529942.01-2.84l-1.76-1.76c1.0030503-1.3409003 2.0744683-2.6292721 3.21-3.86l1.38 1.38c.5055308.5055308 1.242358.7029631 1.932926.517926.6905679-.1850371 1.2299629-.7244321 1.415-1.415.1850371-.690568-.0123952-1.4273952-.517926-1.932926l-1.38-1.38c1.2307279-1.1355317 2.5190997-2.2069497 3.86-3.21l1.74 1.78c.7814829.7814829 2.0485171.7814829 2.83 0s.7814829-2.0485171 0-2.83l-1.23-1.23c1.29-.8 2.1-1.21 2.12-1.22.1927239-.0977428.3683337-.226073.52-.38.6898804-.6945252.7756473-1.7863444.2026753-2.58007183s-1.6362708-1.05606489-2.5126753-.61992817z"/><path id="Shape" d="m28.67 58.11c-3.4031749.6779476-6.8710318.9764381-10.34.89l-17.33-17.33c-.09302118-3.4682272.19876116-6.9360771.87-10.34z"/><path id="Shape" d="m58.11 28.67-26.78-26.78c3.4031749-.67794756 6.8710318-.97643814 10.34-.89l17.33 17.33c.0864381 3.4689682-.2120524 6.9368251-.89 10.34z"/></g><path id="Shape" d="m59 18.33-17.33-17.33c-1 0-2 0-3 0l17.33 17.33c.0709909 2.5977489-.0761924 5.1968729-.44 7.77l2.57 2.57c.6712388-3.4039229.9630212-6.8717728.87-10.34z" fill="#cfd8dc"/></g><g id="Icons_copy" fill="#000"><path id="Shape" d="m55.94 4.06c-5.34-5.33-30.43-7.42-44.87 7s-12.34 39.53-7 44.87c2.32 2.32 8.38 4 15.68 4 9.47 0 21-2.88 29.19-11 14.42-14.44 12.33-39.53 7-44.87zm-2.4 7.42-9.31-9.31c4.63.41 8.3 1.57 10 3.09.0700638 2.09571719-.1623258 4.19059137-.69 6.22zm2.63-3.31c.9211185 2.4387896 1.4803774 4.9992521 1.66 7.6l-2.65-2.65c.446454-1.624557.7772818-3.27869583.99-4.95zm1.83 10.58c.0379999 2.624165-.145989 5.2468434-.55 7.84l-5.2-5.19c.8806535-1.986285 1.6518094-4.0193324 2.31-6.09zm-17.48-16.75h.73l11.75 11.72c-.6074011 2.1046806-1.3386763 4.1716184-2.19 6.19l-17.41-17.35c2.3555225-.36845185 4.7358388-.55566774 7.12-.56zm-28 10.48c5.113994-4.88009046 11.5330625-8.17298927 18.48-9.48l18.89 18.87c-2.8371826 6.137631-6.7257428 11.7318782-11.49 16.53-4.7996673 4.7643503-10.3978243 8.649891-16.54 11.48l-18.86-18.88c1.30435573-6.9587264 4.60114607-13.3890309 9.49-18.51zm-9.96 20.93 17.35 17.34c-2.0154554.875689-4.0826599 1.6270961-6.19 2.25l-11.72-11.75c-.03469256-2.6244475.15264173-5.2471276.56-7.84zm-.39 10.82 9.31 9.31c-2.02832102.5365585-4.12256321.7823458-6.22.73-1.52-1.73-2.68-5.41-3.09-10.04zm11 11 2.65 2.65c-2.6116925-.1779073-5.1827783-.7406482-7.63-1.67 1.66528071-.2283013 3.3126109-.5724697 4.93-1.03zm5.58 2.77-3.44-3.45c2.0672742-.6546963 4.0970021-1.422521 6.08-2.3l5.2 5.2c-2.5931994.4036316-5.2158456.5876183-7.84.55zm28.76-10.49c-5.1209691 4.8888539-11.5512736 8.1856443-18.51 9.49l-5.65-5.65c6.0930262-2.9006212 11.6594373-6.7974469 16.47-11.53 4.7343791-4.8165897 8.6312933-10.3898868 11.53-16.49l5.65 5.67c-1.3043557 6.9587264-4.6011461 13.3890309-9.49 18.51z"/><path id="Shape" d="m8.79 25.76 1 1c-1 1.61-1.52 2.64-1.53 2.65-.35482292.7119338-.41237458 1.5356419-.16 2.29.40925762 1.2258866 1.55760452 2.0518905 2.85 2.05.3224906-.0009187.6429151-.0515121.95-.15.7556781-.2842014 1.3649105-.8609894 1.69-1.6 0 0 .18-.35.53-.95l.32.32c1.1708437 1.173605 3.0713949 1.1758436 4.2449999.0049999 1.1736051-1.1708436 1.1758437-3.0713948.0050001-4.2449999l-1.14-1.13c.61-.79 1.25-1.57 1.92-2.32l.63.63c1.184325 1.1378315 3.055675 1.1378315 4.24 0 1.1698135-1.1712702 1.1698135-3.0687298 0-4.24l-.63-.63c.75-.67 1.53-1.31 2.32-1.92l1.14 1.14c1.1736051 1.1708436 3.0741563 1.168605 4.2449999-.0050001 1.1708437-1.173605 1.1686051-3.0741562-.0049999-4.2449999l-.32-.32c.61-.35.95-.53 1-.53.2897014-.141375.5534174-.3307095.78-.56 1.0465182-1.0387618 1.1830037-2.6840372.3219559-3.88104309-.8610479-1.19700585-2.4643177-1.59081493-3.7819559-.92895691-.05 0-1.07.54-2.65 1.53l-1-1c-1.1876946-1.13908216-3.0623054-1.13908216-4.25 0-1.1698135 1.17127019-1.1698135 3.0687298 0 4.24l.25.24c-.78.62-1.55 1.27-2.3 1.94l-.77-.77c-.7591894-.7591894-1.865732-1.0556866-2.902804-.777804s-1.8471174 1.087928-2.125 2.125.0186146 2.1436146.777804 2.902804l.77.77c-.67.75-1.32 1.52-1.94 2.3l-.27-.18c-1.1884135-1.1276288-3.05158648-1.1276288-4.24 0-.56090859.5668832-.87302598 1.3337681-.86739685 2.1312287.00562913.7974605.3285415 1.5598629.89739685 2.1187713zm1.41-2.83c.1887188-.1871865.444197-.2915368.71-.29.265803-.0015368.5212812.1028135.71.29l1 1c.2031661.2026728.4836121.3082954.77.29.2882365-.0184775.5544065-.1606779.73-.39 1-1.28 2-2.55 3.17-3.77.3682542-.3862983.3682542-.9937017 0-1.38l-1.44-1.45c-.2853762-.2443899-.4096819-.6281184-.3218101-.993419.0878718-.3653005.3730906-.6505193.7383911-.7383911.3653006-.0878718.7490291.0364339.993419.3218101l1.45 1.44c.3862983.3682542.9937017.3682542 1.38 0 1.22-1.12 2.49-2.19 3.77-3.17.2293221-.1755935.3715225-.4417635.39-.73.0182954-.2863879-.0873272-.5668339-.29-.77l-1-1.05c-.1847442-.1862606-.2888954-.4376601-.29-.7-.0015368-.265803.1028135-.5212812.29-.71.3900375-.38772359 1.0199625-.38772359 1.41 0l1.53 1.53c.3339885.3324467.85475.3866059 1.25.13 1.85-1.14 3.06-1.79 3.11-1.79.2375919-.09462433.5024081-.09462433.74 0 .2520169.0831085.4606665.2629788.58.5.192268.3823565.1199045.8446791-.18 1.15-.0735359.0725527-.1578697.133273-.25.18 0 0-.83.42-2.22 1.29-.2558253.1612615-.4249341.4296298-.46.73-.0360818.3016763.0669441.6033951.28.82l1.25 1.19c.3877236.3900375.3877236 1.0199625 0 1.41-.3900375.3877236-1.0199625.3877236-1.41 0l-1.76-1.75c-.3490448-.350085-.9015192-.392583-1.3-.1-1.3891802 1.0198418-2.7243207 2.1113192-4 3.27-.1955519.1884832-.3060259.4484002-.3060259.72s.110474.5315168.3060259.72l1.38 1.39c.1847442.1862606.2888954.4376601.29.7.0015368.265803-.1028135.5212812-.29.71-.1877666.1893127-.4433625.2957983-.71.2957983s-.5222334-.1064856-.71-.2957983l-1.38-1.38c-.1911631-.1896681-.4507427-.294221-.72-.29-.2736792.0036386-.5339059.1192949-.72.32-1.15 1.26-2.25 2.58-3.27 3.94-.2984269.4003844-.2557424.9595522.1 1.31l1.75 1.76c.3015381.3959775.2659708.9534344-.0834464 1.3078791-.3494171.3544448-.906309.3979717-1.3065536.1021209l-1.23-1.23c-.2159385-.2171095-.5194464-.3233162-.8236404-.2882168-.3041941.0350993-.5755393.2076351-.7363596.4682168-.79 1.27-1.23 2.13-1.27 2.2-.2459531.4940809-.8456857.6954836-1.34.45-.2390365-.1163297-.4219154-.3230506-.50822981-.5744883-.08631441-.2514376-.06895964-.5268955.04822981-.7655117.5547664-1.0799032 1.1690444-2.1281822 1.84-3.14.2566059-.39525.2024467-.9160115-.13-1.25l-1.51-1.53c-.38772359-.3900375-.38772359-1.0199625 0-1.41z"/></g></g></g></svg>